<?xml version="1.0" encoding="UTF-8" standalone="no"?>
<svg
   xmlns:dc="http://purl.org/dc/elements/1.1/"
   xmlns:cc="http://creativecommons.org/ns#"
   xmlns:rdf="http://www.w3.org/1999/02/22-rdf-syntax-ns#"
   xmlns:svg="http://www.w3.org/2000/svg"
   xmlns="http://www.w3.org/2000/svg"
   xmlns:sodipodi="http://sodipodi.sourceforge.net/DTD/sodipodi-0.dtd"
   xmlns:inkscape="http://www.inkscape.org/namespaces/inkscape"
   id="Layer_1"
   viewBox="0 0 187 34"
   version="1.1"
   sodipodi:docname="ubuntu.svg"
   inkscape:version="1.0.2 (1.0.2+r75+1)">
  <metadata
     id="metadata59">
    <rdf:RDF>
      <cc:Work
         rdf:about="">
        <dc:format>image/svg+xml</dc:format>
        <dc:type
           rdf:resource="http://purl.org/dc/dcmitype/StillImage" />
      </cc:Work>
    </rdf:RDF>
  </metadata>
  <sodipodi:namedview
     pagecolor="#ffffff"
     bordercolor="#666666"
     borderopacity="1"
     objecttolerance="10"
     gridtolerance="10"
     guidetolerance="10"
     inkscape:pageopacity="0"
     inkscape:pageshadow="2"
     inkscape:window-width="1853"
     inkscape:window-height="1145"
     id="namedview57"
     showgrid="false"
     inkscape:zoom="4.5250531"
     inkscape:cx="74.921719"
     inkscape:cy="49.469759"
     inkscape:window-x="1267"
     inkscape:window-y="294"
     inkscape:window-maximized="1"
     inkscape:current-layer="Layer_1" />
  <defs
     id="defs4">
    <style
       id="style2">.cls-1{fill:none;}.cls-2{fill:#e95420;}.cls-3{fill:#fff;}</style>
  </defs>
  <g
     id="g36"
     style="fill:#ffffff">
    <path
       d="m 32.53,29.47 c -0.93,0 -1.8,-0.17 -2.6,-0.5 -0.8,-0.33 -1.5,-0.82 -2.09,-1.46 -0.59,-0.64 -1.06,-1.43 -1.4,-2.37 -0.34,-0.94 -0.51,-2.02 -0.51,-3.23 0,-1.21 0.18,-2.29 0.55,-3.23 0.37,-0.94 0.86,-1.73 1.47,-2.37 0.61,-0.64 1.32,-1.12 2.13,-1.45 0.81,-0.33 1.65,-0.49 2.53,-0.49 0.54,0 1.04,0.04 1.48,0.1 0.45,0.07 0.83,0.16 1.17,0.26 0.33,0.1 0.62,0.21 0.86,0.31 0.24,0.1 0.42,0.2 0.54,0.28 l -0.46,1.23 c -0.35,-0.21 -0.79,-0.41 -1.33,-0.62 -0.54,-0.21 -1.2,-0.3 -2,-0.3 -0.91,0 -1.7,0.15 -2.37,0.46 -0.68,0.31 -1.24,0.74 -1.7,1.29 -0.46,0.56 -0.8,1.22 -1.03,1.98 -0.23,0.77 -0.34,1.62 -0.34,2.55 0,0.93 0.12,1.83 0.34,2.6 0.23,0.77 0.57,1.43 1.01,1.97 0.45,0.54 0.99,0.96 1.64,1.25 0.65,0.29 1.39,0.44 2.22,0.44 0.92,0 1.69,-0.09 2.31,-0.26 0.62,-0.17 1.09,-0.35 1.41,-0.53 l 0.4,1.21 c -0.1,0.07 -0.26,0.15 -0.5,0.24 -0.24,0.09 -0.54,0.18 -0.9,0.28 -0.36,0.1 -0.78,0.18 -1.25,0.24 -0.47,0.06 -1,0.09 -1.59,0.09 z"
       id="path6"
       style="fill:#ffffff" />
    <path
       d="m 42.56,18.11 c 0.71,0 1.31,0.1 1.81,0.3 0.5,0.2 0.89,0.48 1.2,0.83 0.31,0.36 0.53,0.78 0.67,1.26 0.14,0.49 0.21,1.02 0.21,1.59 v 6.81 c -0.14,0.04 -0.34,0.09 -0.61,0.14 -0.26,0.05 -0.57,0.1 -0.92,0.16 -0.35,0.06 -0.73,0.1 -1.16,0.14 -0.42,0.03 -0.86,0.05 -1.31,0.05 -0.57,0 -1.1,-0.06 -1.58,-0.19 -0.48,-0.13 -0.9,-0.32 -1.25,-0.6 -0.35,-0.27 -0.63,-0.62 -0.83,-1.04 -0.2,-0.42 -0.3,-0.94 -0.3,-1.56 0,-0.62 0.11,-1.09 0.33,-1.5 0.22,-0.41 0.54,-0.76 0.94,-1.03 0.4,-0.27 0.88,-0.47 1.44,-0.59 0.56,-0.13 1.16,-0.19 1.82,-0.19 0.2,0 0.4,0.01 0.62,0.03 0.22,0.02 0.42,0.05 0.63,0.08 0.2,0.03 0.38,0.07 0.52,0.1 0.15,0.03 0.25,0.07 0.3,0.09 v -0.67 c 0,-0.38 -0.03,-0.74 -0.08,-1.1 -0.06,-0.35 -0.18,-0.67 -0.37,-0.96 -0.19,-0.29 -0.45,-0.52 -0.79,-0.69 -0.34,-0.17 -0.79,-0.26 -1.35,-0.26 -0.79,0 -1.39,0.06 -1.78,0.17 -0.39,0.11 -0.67,0.2 -0.86,0.27 l -0.19,-1.19 c 0.24,-0.11 0.6,-0.22 1.1,-0.31 0.49,-0.1 1.09,-0.15 1.79,-0.15 z m 0.12,10.07 c 0.53,0 0.99,-0.02 1.39,-0.05 0.4,-0.03 0.73,-0.08 1.01,-0.14 v -3.8 c -0.15,-0.07 -0.4,-0.14 -0.73,-0.22 -0.33,-0.08 -0.79,-0.12 -1.38,-0.12 -0.33,0 -0.68,0.02 -1.04,0.07 -0.36,0.05 -0.7,0.15 -1,0.31 -0.31,0.16 -0.56,0.38 -0.75,0.66 -0.2,0.28 -0.29,0.65 -0.29,1.11 0,0.4 0.07,0.75 0.2,1.02 0.13,0.28 0.32,0.5 0.56,0.67 0.24,0.17 0.54,0.29 0.88,0.37 0.34,0.08 0.73,0.12 1.16,0.12 z"
       id="path8"
       style="fill:#ffffff" />
    <path
       d="m 49.76,18.74 c 0.4,-0.11 0.95,-0.24 1.63,-0.38 0.68,-0.14 1.52,-0.21 2.51,-0.21 0.82,0 1.51,0.12 2.06,0.36 0.55,0.24 0.99,0.57 1.32,1.01 0.33,0.44 0.56,0.96 0.7,1.58 0.14,0.61 0.21,1.29 0.21,2.03 v 6.04 h -1.36 v -5.6 c 0,-0.77 -0.05,-1.41 -0.16,-1.94 -0.11,-0.53 -0.28,-0.96 -0.52,-1.29 -0.24,-0.33 -0.56,-0.57 -0.96,-0.72 -0.4,-0.15 -0.89,-0.22 -1.49,-0.22 -0.64,0 -1.19,0.04 -1.66,0.1 -0.47,0.07 -0.77,0.13 -0.91,0.19 v 9.48 H 49.77 V 18.75 Z"
       id="path10"
       style="fill:#ffffff" />
    <path
       d="m 70.74,23.77 c 0,0.85 -0.12,1.62 -0.37,2.32 -0.24,0.7 -0.58,1.29 -1.02,1.78 -0.44,0.49 -0.96,0.87 -1.56,1.14 -0.6,0.27 -1.26,0.41 -1.98,0.41 -0.72,0 -1.39,-0.14 -1.99,-0.41 -0.6,-0.27 -1.12,-0.65 -1.56,-1.14 -0.44,-0.49 -0.78,-1.08 -1.02,-1.78 -0.24,-0.7 -0.37,-1.47 -0.37,-2.32 0,-0.85 0.12,-1.62 0.37,-2.32 0.24,-0.7 0.58,-1.29 1.02,-1.79 0.44,-0.49 0.96,-0.88 1.56,-1.15 0.6,-0.27 1.26,-0.41 1.99,-0.41 0.73,0 1.38,0.14 1.98,0.41 0.6,0.27 1.12,0.65 1.56,1.15 0.44,0.5 0.78,1.09 1.02,1.79 0.24,0.7 0.37,1.47 0.37,2.32 z m -1.44,0 c 0,-1.35 -0.31,-2.43 -0.94,-3.23 -0.63,-0.8 -1.48,-1.2 -2.55,-1.2 -1.07,0 -1.92,0.4 -2.55,1.2 -0.63,0.8 -0.94,1.88 -0.94,3.23 0,1.35 0.31,2.42 0.94,3.22 0.63,0.79 1.48,1.19 2.55,1.19 1.07,0 1.92,-0.4 2.55,-1.19 0.63,-0.79 0.94,-1.87 0.94,-3.22 z"
       id="path12"
       style="fill:#ffffff" />
    <path
       d="m 73.56,18.74 c 0.4,-0.11 0.95,-0.24 1.63,-0.38 0.68,-0.14 1.52,-0.21 2.51,-0.21 0.82,0 1.51,0.12 2.06,0.36 0.55,0.24 0.99,0.57 1.32,1.01 0.33,0.44 0.56,0.96 0.7,1.58 0.14,0.61 0.21,1.29 0.21,2.03 v 6.04 h -1.36 v -5.6 c 0,-0.77 -0.05,-1.41 -0.16,-1.94 -0.11,-0.53 -0.28,-0.96 -0.52,-1.29 -0.24,-0.33 -0.56,-0.57 -0.96,-0.72 -0.4,-0.15 -0.89,-0.22 -1.49,-0.22 -0.64,0 -1.19,0.04 -1.66,0.1 -0.47,0.07 -0.77,0.13 -0.91,0.19 v 9.48 H 73.57 V 18.75 Z"
       id="path14"
       style="fill:#ffffff" />
    <path
       d="m 86.91,15.1 c 0,0.32 -0.1,0.57 -0.29,0.76 -0.2,0.19 -0.43,0.28 -0.71,0.28 -0.28,0 -0.52,-0.09 -0.71,-0.28 -0.2,-0.19 -0.29,-0.44 -0.29,-0.76 0,-0.32 0.1,-0.58 0.29,-0.76 0.19,-0.19 0.43,-0.28 0.71,-0.28 0.28,0 0.51,0.09 0.71,0.28 0.2,0.19 0.29,0.44 0.29,0.76 z M 86.6,29.16 h -1.36 v -10.8 h 1.36 z"
       id="path16"
       style="fill:#ffffff" />
    <path
       d="m 94.48,29.39 c -0.84,0 -1.57,-0.13 -2.21,-0.4 -0.64,-0.26 -1.17,-0.64 -1.6,-1.14 -0.43,-0.5 -0.75,-1.09 -0.97,-1.78 -0.22,-0.69 -0.33,-1.45 -0.33,-2.29 0,-0.84 0.12,-1.62 0.34,-2.32 0.23,-0.7 0.56,-1.29 0.99,-1.8 0.43,-0.51 0.95,-0.89 1.57,-1.16 0.61,-0.27 1.3,-0.41 2.07,-0.41 0.58,0 1.13,0.05 1.64,0.15 0.51,0.1 0.9,0.22 1.18,0.38 l -0.36,1.17 c -0.28,-0.14 -0.59,-0.25 -0.94,-0.33 -0.35,-0.08 -0.81,-0.12 -1.4,-0.12 -1.2,0 -2.11,0.39 -2.73,1.16 -0.62,0.77 -0.93,1.87 -0.93,3.29 0,0.64 0.07,1.23 0.21,1.76 0.14,0.54 0.37,1 0.68,1.38 0.31,0.38 0.72,0.68 1.21,0.9 0.49,0.22 1.1,0.32 1.81,0.32 0.58,0 1.08,-0.07 1.47,-0.2 0.4,-0.13 0.69,-0.25 0.87,-0.34 l 0.29,1.17 c -0.25,0.14 -0.64,0.28 -1.18,0.41 -0.54,0.13 -1.1,0.2 -1.68,0.2 z"
       id="path18"
       style="fill:#ffffff" />
    <path
       d="m 103.01,18.11 c 0.71,0 1.31,0.1 1.81,0.3 0.5,0.2 0.89,0.48 1.2,0.83 0.31,0.36 0.53,0.78 0.67,1.26 0.14,0.49 0.21,1.02 0.21,1.59 v 6.81 c -0.14,0.04 -0.34,0.09 -0.61,0.14 -0.26,0.05 -0.57,0.1 -0.92,0.16 -0.35,0.06 -0.73,0.1 -1.16,0.14 -0.42,0.03 -0.86,0.05 -1.31,0.05 -0.57,0 -1.1,-0.06 -1.58,-0.19 -0.48,-0.13 -0.9,-0.32 -1.25,-0.6 -0.35,-0.27 -0.63,-0.62 -0.83,-1.04 -0.2,-0.42 -0.3,-0.94 -0.3,-1.56 0,-0.62 0.11,-1.09 0.33,-1.5 0.22,-0.41 0.54,-0.76 0.94,-1.03 0.4,-0.27 0.88,-0.47 1.44,-0.59 0.56,-0.13 1.16,-0.19 1.82,-0.19 0.2,0 0.4,0.01 0.62,0.03 0.22,0.02 0.42,0.05 0.63,0.08 0.2,0.03 0.38,0.07 0.52,0.1 0.15,0.03 0.25,0.07 0.3,0.09 v -0.67 c 0,-0.38 -0.03,-0.74 -0.08,-1.1 -0.06,-0.35 -0.18,-0.67 -0.37,-0.96 -0.19,-0.29 -0.45,-0.52 -0.79,-0.69 -0.34,-0.17 -0.79,-0.26 -1.35,-0.26 -0.79,0 -1.39,0.06 -1.78,0.17 -0.39,0.11 -0.67,0.2 -0.86,0.27 l -0.19,-1.19 c 0.24,-0.11 0.6,-0.22 1.1,-0.31 0.49,-0.1 1.09,-0.15 1.79,-0.15 z m 0.12,10.07 c 0.53,0 0.99,-0.02 1.39,-0.05 0.4,-0.03 0.73,-0.08 1.01,-0.14 v -3.8 c -0.15,-0.07 -0.4,-0.14 -0.73,-0.22 -0.33,-0.08 -0.79,-0.12 -1.38,-0.12 -0.33,0 -0.68,0.02 -1.04,0.07 -0.36,0.05 -0.7,0.15 -1,0.31 -0.31,0.16 -0.56,0.38 -0.75,0.66 -0.2,0.28 -0.29,0.65 -0.29,1.11 0,0.4 0.07,0.75 0.2,1.02 0.13,0.28 0.32,0.5 0.56,0.67 0.24,0.17 0.54,0.29 0.88,0.37 0.34,0.08 0.73,0.12 1.16,0.12 z"
       id="path20"
       style="fill:#ffffff" />
    <path
       d="m 112.92,29.35 c -0.46,-0.01 -0.86,-0.07 -1.2,-0.18 -0.34,-0.1 -0.63,-0.26 -0.86,-0.48 -0.23,-0.22 -0.4,-0.49 -0.52,-0.84 -0.12,-0.34 -0.18,-0.77 -0.18,-1.28 V 13.2 l 1.36,-0.25 v 13.58 c 0,0.33 0.03,0.6 0.09,0.8 0.06,0.2 0.16,0.36 0.28,0.48 0.12,0.12 0.29,0.21 0.49,0.26 0.2,0.05 0.44,0.1 0.72,0.15 l -0.19,1.13 z"
       id="path22"
       style="fill:#ffffff" />
    <path
       d="m 124.99,29.47 c -0.96,0 -1.78,-0.15 -2.46,-0.44 -0.68,-0.29 -1.22,-0.7 -1.64,-1.21 -0.42,-0.51 -0.72,-1.12 -0.91,-1.81 -0.19,-0.69 -0.28,-1.43 -0.28,-2.22 v -9.11 h 1.42 v 8.92 c 0,0.79 0.09,1.48 0.28,2.06 0.19,0.58 0.45,1.05 0.78,1.43 0.33,0.38 0.74,0.66 1.21,0.84 0.47,0.18 1,0.27 1.59,0.27 0.59,0 1.11,-0.09 1.59,-0.27 0.48,-0.18 0.88,-0.46 1.21,-0.84 0.33,-0.38 0.59,-0.85 0.78,-1.43 0.19,-0.58 0.28,-1.26 0.28,-2.06 v -8.92 h 1.42 v 9.11 c 0,0.79 -0.09,1.54 -0.28,2.22 -0.19,0.69 -0.49,1.29 -0.91,1.81 -0.42,0.52 -0.96,0.92 -1.64,1.21 -0.68,0.29 -1.49,0.44 -2.45,0.44 z"
       id="path24"
       style="fill:#ffffff" />
    <path
       d="m 135.14,19.01 c 0.24,-0.18 0.62,-0.37 1.14,-0.57 0.52,-0.2 1.14,-0.3 1.85,-0.3 0.78,0 1.47,0.14 2.08,0.42 0.61,0.28 1.12,0.67 1.54,1.17 0.42,0.5 0.73,1.1 0.95,1.79 0.22,0.69 0.32,1.44 0.32,2.27 0,0.88 -0.13,1.67 -0.39,2.36 -0.26,0.7 -0.62,1.29 -1.09,1.78 -0.47,0.49 -1.02,0.86 -1.67,1.12 -0.65,0.26 -1.37,0.39 -2.16,0.39 -0.96,0 -1.75,-0.06 -2.38,-0.19 -0.63,-0.12 -1.14,-0.26 -1.54,-0.4 V 13.2 l 1.36,-0.25 v 6.06 z m 0,8.88 c 0.21,0.07 0.52,0.14 0.93,0.2 0.41,0.06 0.95,0.09 1.62,0.09 1.17,0 2.11,-0.38 2.82,-1.14 0.71,-0.76 1.07,-1.85 1.07,-3.27 0,-0.6 -0.06,-1.17 -0.19,-1.7 -0.13,-0.54 -0.33,-1 -0.61,-1.4 -0.28,-0.4 -0.64,-0.71 -1.1,-0.95 -0.45,-0.24 -1.01,-0.36 -1.68,-0.36 -0.32,0 -0.63,0.03 -0.92,0.09 -0.29,0.06 -0.56,0.14 -0.81,0.24 -0.25,0.1 -0.47,0.2 -0.66,0.31 -0.19,0.11 -0.34,0.22 -0.47,0.31 v 7.56 z"
       id="path26"
       style="fill:#ffffff" />
    <path
       d="m 154.13,28.78 c -0.4,0.11 -0.95,0.24 -1.63,0.38 -0.68,0.14 -1.52,0.21 -2.51,0.21 -0.81,0 -1.48,-0.12 -2.03,-0.36 -0.54,-0.24 -0.98,-0.57 -1.32,-1 -0.34,-0.43 -0.57,-0.95 -0.72,-1.57 -0.15,-0.61 -0.22,-1.29 -0.22,-2.03 v -6.06 h 1.36 v 5.62 c 0,0.77 0.05,1.41 0.17,1.94 0.11,0.53 0.29,0.96 0.54,1.28 0.25,0.33 0.57,0.56 0.97,0.71 0.4,0.15 0.88,0.22 1.45,0.22 0.64,0 1.2,-0.04 1.67,-0.1 0.47,-0.06 0.77,-0.13 0.9,-0.19 v -9.48 h 1.36 v 10.42 z"
       id="path28"
       style="fill:#ffffff" />
    <path
       d="m 157.51,18.74 c 0.4,-0.11 0.95,-0.24 1.63,-0.38 0.68,-0.14 1.52,-0.21 2.51,-0.21 0.82,0 1.51,0.12 2.06,0.36 0.55,0.24 0.99,0.57 1.32,1.01 0.33,0.44 0.56,0.96 0.7,1.58 0.14,0.61 0.21,1.29 0.21,2.03 v 6.04 h -1.36 v -5.6 c 0,-0.77 -0.05,-1.41 -0.16,-1.94 -0.11,-0.53 -0.28,-0.96 -0.52,-1.29 -0.24,-0.33 -0.56,-0.57 -0.96,-0.72 -0.4,-0.15 -0.89,-0.22 -1.49,-0.22 -0.64,0 -1.19,0.04 -1.66,0.1 -0.47,0.07 -0.77,0.13 -0.91,0.19 v 9.48 h -1.36 V 18.75 Z"
       id="path30"
       style="fill:#ffffff" />
    <path
       d="m 170.49,18.36 h 4.3 v 1.15 h -4.3 v 5.74 c 0,0.61 0.05,1.11 0.16,1.49 0.1,0.38 0.25,0.68 0.45,0.89 0.19,0.21 0.43,0.35 0.71,0.42 0.28,0.07 0.58,0.1 0.92,0.1 0.57,0 1.03,-0.07 1.38,-0.2 0.35,-0.13 0.62,-0.25 0.81,-0.37 l 0.33,1.13 c -0.2,0.12 -0.54,0.27 -1.02,0.43 -0.49,0.16 -1.02,0.24 -1.59,0.24 -0.67,0 -1.23,-0.09 -1.68,-0.26 -0.45,-0.17 -0.82,-0.44 -1.09,-0.79 -0.27,-0.35 -0.46,-0.8 -0.57,-1.33 -0.11,-0.53 -0.17,-1.16 -0.17,-1.88 v -9.93 l 1.36,-0.25 v 3.43 z"
       id="path32"
       style="fill:#ffffff" />
    <path
       d="m 185.48,28.78 c -0.4,0.11 -0.95,0.24 -1.63,0.38 -0.68,0.14 -1.52,0.21 -2.51,0.21 -0.81,0 -1.48,-0.12 -2.03,-0.36 -0.54,-0.24 -0.98,-0.57 -1.32,-1 -0.34,-0.43 -0.57,-0.95 -0.72,-1.57 -0.15,-0.61 -0.22,-1.29 -0.22,-2.03 v -6.06 h 1.36 v 5.62 c 0,0.77 0.05,1.41 0.17,1.94 0.11,0.53 0.29,0.96 0.54,1.28 0.25,0.33 0.57,0.56 0.97,0.71 0.4,0.15 0.88,0.22 1.45,0.22 0.64,0 1.2,-0.04 1.67,-0.1 0.47,-0.06 0.77,-0.13 0.9,-0.19 v -9.48 h 1.36 v 10.42 z"
       id="path34"
       style="fill:#ffffff" />
  </g>
  <g
     id="g52">
    <rect
       class="cls-2"
       width="21"
       height="32"
       id="rect38" />
    <circle
       class="cls-3"
       cx="4.8"
       cy="21.15"
       r="2.17"
       id="circle40" />
    <circle
       class="cls-3"
       cx="13.86"
       cy="16.39"
       r="2.17"
       id="circle42" />
    <path
       class="cls-3"
       d="M9.7,26.75c-1.57-.34-2.87-1.34-3.61-2.75-.58,.26-1.23,.34-1.86,.23,.89,2.19,2.78,3.77,5.1,4.27,.51,.11,1.03,.16,1.54,.16-.4-.52-.62-1.16-.64-1.82-.18-.02-.36-.05-.53-.09Z"
       id="path44" />
    <circle
       class="cls-3"
       cx="13.37"
       cy="26.76"
       r="2.17"
       id="circle46" />
    <path
       class="cls-3"
       d="M16.39,25.96c.68-.85,1.15-1.86,1.38-2.93,.4-1.87,.03-3.83-1.03-5.42-.25,.59-.68,1.09-1.22,1.43,.59,1.11,.77,2.38,.5,3.61-.13,.6-.36,1.17-.68,1.68,.51,.42,.87,.98,1.04,1.62Z"
       id="path48" />
    <path
       class="cls-3"
       d="M4.63,18.04c.06,0,.11,0,.17,0,.22,0,.44,.02,.66,.07,.35,.08,.69,.21,.99,.4,.98-1.41,2.56-2.25,4.27-2.28,0-.16,.03-.33,.07-.49,.1-.47,.3-.9,.59-1.27-2.73-.22-5.39,1.19-6.74,3.58Z"
       id="path50" />
  </g>
  <rect
     class="cls-1"
     x="2.5"
     y="14"
     width="16"
     height="16"
     id="rect54" />
</svg>
